<?xml version="1.0" standalone="no"?>
<!DOCTYPE svg PUBLIC "-//W3C//DTD SVG 20010904//EN"
 "http://www.w3.org/TR/2001/REC-SVG-20010904/DTD/svg10.dtd">
<svg version="1.0" xmlns="http://www.w3.org/2000/svg"
 width="696.000000pt" height="371.000000pt" viewBox="0 0 696.000000 371.000000"
 preserveAspectRatio="xMidYMid meet">

<g transform="translate(0.000000,371.000000) scale(0.100000,-0.100000)"
fill="#FFFFFF" stroke="none">
<path d="M1454 3561 c-51 -31 -69 -82 -69 -191 0 -105 14 -144 68 -184 36 -27
110 -27 150 -1 60 39 89 154 67 261 -10 46 -21 67 -50 96 -33 34 -43 38 -86
38 -30 0 -61 -7 -80 -19z m112 -55 c26 -21 28 -30 32 -112 5 -108 -11 -159
-54 -170 -57 -14 -87 36 -88 146 -1 84 16 137 48 150 31 13 32 12 62 -14z"/>
<path d="M2013 3553 c-30 -10 -43 -20 -43 -34 0 -16 7 -19 40 -19 l40 0 0
-135 0 -135 -50 0 c-49 0 -50 -1 -50 -30 l0 -30 135 0 135 0 0 30 c0 29 -2 30
-45 30 l-45 0 0 170 0 170 -37 -1 c-21 0 -57 -7 -80 -16z"/>
<path d="M1762 3248 c-21 -21 -14 -57 13 -70 33 -15 32 -31 -6 -62 -32 -27
-34 -56 -3 -56 27 0 82 63 89 102 10 52 -12 92 -50 96 -17 2 -36 -3 -43 -10z"/>
<path d="M1725 2864 c-256 -57 -448 -229 -500 -446 -25 -107 -29 -240 -11
-393 23 -197 37 -251 61 -247 11 1 -13 -15 -52 -36 -234 -126 -393 -319 -470
-569 -24 -78 -27 -104 -27 -238 -1 -127 3 -162 22 -230 49 -171 137 -313 274
-440 141 -131 319 -216 527 -250 422 -71 866 150 1050 521 49 97 91 252 91
330 l0 54 985 0 c793 0 985 -2 985 -13 0 -15 -27 -56 -50 -75 -13 -11 -13 -12
5 -8 11 3 92 24 179 47 87 22 164 43 171 45 8 4 14 -18 18 -74 15 -199 117
-402 278 -558 275 -266 679 -352 1045 -223 154 54 245 110 363 223 187 180
281 397 281 647 0 425 -290 781 -735 901 -111 30 -373 32 -485 4 -419 -105
-718 -436 -747 -824 -4 -54 -10 -82 -17 -79 -10 4 -288 89 -340 104 -18 5 -18
4 2 -22 12 -15 22 -32 22 -36 0 -5 -435 -9 -979 -9 l-978 0 -7 70 c-27 291
-241 582 -532 720 -239 115 -530 131 -782 46 l-71 -24 -10 51 c-30 151 -36
206 -36 362 0 148 3 179 22 240 75 237 317 395 607 395 164 0 283 -43 387
-138 113 -104 160 -232 162 -442 0 -93 -4 -140 -17 -185 l-18 -60 -29 33 c-16
18 -29 42 -29 54 0 12 -2 19 -4 17 -6 -6 -77 -391 -73 -395 3 -3 179 190 244
266 l22 27 -39 -10 c-22 -6 -42 -9 -44 -6 -3 3 2 25 11 49 24 67 29 274 9 380
-39 211 -171 361 -376 430 -87 29 -266 36 -365 14z m223 -1093 c276 -69 515
-271 620 -524 145 -349 31 -755 -277 -989 -323 -244 -776 -259 -1114 -37 -184
120 -319 306 -373 514 -28 106 -26 305 4 409 94 327 372 575 720 641 106 20
310 13 420 -14z m4240 5 c297 -74 542 -280 643 -541 65 -167 76 -362 29 -525
-64 -225 -232 -426 -450 -539 -460 -239 -1044 -65 -1275 379 -59 115 -85 212
-92 340 -23 434 291 808 750 896 90 17 307 11 395 -10z"/>
<path d="M1580 972 l0 -212 40 0 40 0 0 74 0 73 64 6 c121 11 169 49 169 132
0 92 -47 123 -203 132 l-110 6 0 -211z m179 142 c42 -9 65 -43 56 -84 -8 -38
-48 -60 -110 -60 l-45 0 0 75 0 75 34 0 c18 0 48 -3 65 -6z"/>
<path d="M5780 1705 c-296 -66 -529 -271 -619 -544 -32 -98 -44 -212 -32 -310
13 -99 56 -229 102 -308 49 -83 200 -232 284 -280 282 -163 618 -163 900 0 84
48 235 197 284 280 46 79 89 209 102 308 31 253 -88 528 -302 691 -80 62 -209
127 -304 153 -84 24 -328 29 -415 10z m415 -75 c336 -107 545 -376 545 -699 0
-115 -19 -201 -65 -297 -84 -173 -233 -309 -420 -380 -418 -158 -888 50 -1032
458 -20 56 -27 99 -31 185 -6 137 13 231 68 341 105 209 292 352 535 408 93
21 311 13 400 -16z"/>
<path d="M5890 1062 c-89 -47 -107 -211 -30 -275 39 -33 90 -42 136 -22 20 8
38 15 40 15 2 0 4 -31 4 -70 l0 -70 40 0 40 0 0 215 0 215 -28 0 c-15 0 -33
-5 -38 -10 -7 -7 -20 -6 -40 5 -39 20 -82 19 -124 -3z m124 -52 c25 -9 26 -13
26 -90 l0 -80 -36 -17 c-32 -16 -38 -16 -62 -2 -38 21 -54 56 -48 109 7 71 57
104 120 80z"/>
<path d="M21 1797 c-8 -11 38 -64 220 -251 128 -130 229 -240 225 -243 -3 -4
-25 -9 -47 -12 l-42 -6 164 -107 c90 -59 165 -105 166 -104 4 4 -162 354 -172
363 -4 5 -5 2 -1 -4 9 -16 -10 -87 -28 -102 -11 -9 -14 -8 -12 3 1 15 -438
476 -454 476 -4 0 -13 -6 -19 -13z"/>
<path d="M3653 1463 c-30 -10 -43 -20 -43 -34 0 -16 7 -19 40 -19 l40 0 0
-135 0 -135 -50 0 c-49 0 -50 -1 -50 -30 l0 -30 135 0 135 0 0 30 c0 29 -2 30
-45 30 l-45 0 0 170 0 170 -37 -1 c-21 0 -57 -7 -80 -16z"/>
</g>
</svg>
